# xmcd
# Track frame offsets:
# 150
# 13428
# 24441
# 35887
# 47419
# 59723
# 71635
# 82419
# 97151
# 110503
# 121277
# 133138
# 145137
# 157443
# 169185
#
# Disc length: 2517 seconds
# Revision: 0
# Processed by: cddbd v1.5.1PL0 Copyright (c) Steve Scherf et al.
# Submitted via: VisiTrax 2.9.10.228 - For more info visit www.synapsa.com
#
DISCID=ed09d30f
DTITLE=Thompson, Hank - CB90134
DYEAR=1900
DGENRE=Karaoke
TTITLE0=Wild Side Of Life, The
TTITLE1=Humpty Dumpty Heart
TTITLE2=Wake Up Irene
TTITLE3=New Green Light, The
TTITLE4=Squaws Along The Yukon
TTITLE5=Waiting In The Lobby Of Your Heart
TTITLE6=Rub A Dub Dub
TTITLE7=Blackboard Of My Heart, The
TTITLE8=I've Come Awful Close
TTITLE9=Six Pack To Go, A
TTITLE10=Honky Tonk Girl
TTITLE11=On Tap, In The Can, Or In The Bottle
TTITLE12=Smoky The Bar
TTITLE13=Older The Violin The Sweeter The Music
TTITLE14=Who Left The Door To Heaven Open
EXTD=
EXTT0=
EXTT1=
EXTT2=
EXTT3=
EXTT4=
EXTT5=
EXTT6=
EXTT7=
EXTT8=
EXTT9=
EXTT10=
EXTT11=
EXTT12=
EXTT13=
EXTT14=
PLAYORDER=
